<svg xmlns="http://www.w3.org/2000/svg" width="200" height="200" viewBox="0 0 200 200" version="1.1"><path d="M 89 50.683 C 65.692 54.508, 63.190 55.156, 50 60.791 C 40.141 65.003, 31.858 69.656, 23.752 75.536 C 16.429 80.849, 7 89.744, 7 91.341 C 7 92.016, 9.389 94.928, 12.309 97.811 L 17.618 103.054 21.708 99.163 C 27.591 93.567, 36.524 86.901, 43.863 82.632 C 50.351 78.858, 61.956 73.622, 62.539 74.206 C 62.717 74.384, 61.962 77.672, 60.862 81.514 C 58.252 90.630, 58.067 105.943, 60.458 115 C 64.272 129.452, 73.789 139.678, 88 144.596 C 92.310 146.088, 96.313 146.500, 106.500 146.500 C 119.753 146.500, 125.509 145.379, 133.750 141.195 L 137 139.545 137 130.273 C 137 124.126, 136.625 121, 135.886 121 C 135.274 121, 133.136 121.881, 131.136 122.958 C 123.591 127.022, 119.232 128.229, 110.251 128.743 C 102.932 129.162, 100.054 128.911, 96.461 127.538 C 88.191 124.380, 83.086 118.305, 81.472 109.703 L 80.777 106 111.830 106 C 128.908 106, 143.062 105.662, 143.282 105.250 C 144.152 103.622, 141.903 82.703, 140.496 79.336 C 138.482 74.516, 138.604 73.744, 141.250 74.552 C 150.373 77.336, 166.463 87.015, 176.765 95.917 L 185.005 103.038 190.503 97.541 C 193.526 94.517, 195.998 91.696, 195.995 91.272 C 195.989 90.383, 185.849 81.192, 179.661 76.467 C 168.164 67.689, 153.233 60.165, 138 55.474 C 124.963 51.459, 99.461 48.966, 89 50.683 M 92.479 69.992 C 90.125 71.157, 87.316 73.744, 85.703 76.232 C 82.714 80.841, 80.547 87.459, 81.514 89.023 C 81.873 89.603, 89.820 90, 101.090 90 C 116.721 90, 120.161 89.745, 120.618 88.553 C 121.388 86.546, 118.375 76.961, 116.145 74.329 C 110.713 67.913, 100.471 66.036, 92.479 69.992" stroke="none" fill="#261f24" fill-rule="evenodd"/><path d="M -0 100.005 L -0 200.010 100.250 199.755 L 200.500 199.500 200.755 99.750 L 201.010 0 100.505 0 L 0 0 -0 100.005 M 0.481 100.500 C 0.481 155.500, 0.602 178.147, 0.750 150.826 C 0.898 123.506, 0.898 78.506, 0.750 50.826 C 0.602 23.147, 0.481 45.500, 0.481 100.500 M 89 50.683 C 65.692 54.508, 63.190 55.156, 50 60.791 C 40.141 65.003, 31.858 69.656, 23.752 75.536 C 16.429 80.849, 7 89.744, 7 91.341 C 7 92.016, 9.389 94.928, 12.309 97.811 L 17.618 103.054 21.708 99.163 C 27.591 93.567, 36.524 86.901, 43.863 82.632 C 50.351 78.858, 61.956 73.622, 62.539 74.206 C 62.717 74.384, 61.962 77.672, 60.862 81.514 C 58.252 90.630, 58.067 105.943, 60.458 115 C 64.272 129.452, 73.789 139.678, 88 144.596 C 92.310 146.088, 96.313 146.500, 106.500 146.500 C 119.753 146.500, 125.509 145.379, 133.750 141.195 L 137 139.545 137 130.273 C 137 124.126, 136.625 121, 135.886 121 C 135.274 121, 133.136 121.881, 131.136 122.958 C 123.591 127.022, 119.232 128.229, 110.251 128.743 C 102.932 129.162, 100.054 128.911, 96.461 127.538 C 88.191 124.380, 83.086 118.305, 81.472 109.703 L 80.777 106 111.830 106 C 128.908 106, 143.062 105.662, 143.282 105.250 C 144.152 103.622, 141.903 82.703, 140.496 79.336 C 138.482 74.516, 138.604 73.744, 141.250 74.552 C 150.373 77.336, 166.463 87.015, 176.765 95.917 L 185.005 103.038 190.503 97.541 C 193.526 94.517, 195.998 91.696, 195.995 91.272 C 195.989 90.383, 185.849 81.192, 179.661 76.467 C 168.164 67.689, 153.233 60.165, 138 55.474 C 124.963 51.459, 99.461 48.966, 89 50.683 M 92.479 69.992 C 90.125 71.157, 87.316 73.744, 85.703 76.232 C 82.714 80.841, 80.547 87.459, 81.514 89.023 C 81.873 89.603, 89.820 90, 101.090 90 C 116.721 90, 120.161 89.745, 120.618 88.553 C 121.388 86.546, 118.375 76.961, 116.145 74.329 C 110.713 67.913, 100.471 66.036, 92.479 69.992" stroke="none" fill="#fafafa" fill-rule="evenodd"/></svg>