<?xml version="1.0" encoding="UTF-8" standalone="no"?>
<!-- Created with Inkscape (http://www.inkscape.org/) -->

<svg
   xmlns:dc="http://purl.org/dc/elements/1.1/"
   xmlns:cc="http://creativecommons.org/ns#"
   xmlns:rdf="http://www.w3.org/1999/02/22-rdf-syntax-ns#"
   xmlns:svg="http://www.w3.org/2000/svg"
   xmlns="http://www.w3.org/2000/svg"
   xmlns:sodipodi="http://sodipodi.sourceforge.net/DTD/sodipodi-0.dtd"
   xmlns:inkscape="http://www.inkscape.org/namespaces/inkscape"
   width="184.87589"
   height="135.22636"
   id="svg2"
   version="1.1"
   inkscape:version="0.47 r22583"
   sodipodi:docname="endance.svg">
  <defs
     id="defs4">
    <inkscape:perspective
       sodipodi:type="inkscape:persp3d"
       inkscape:vp_x="0 : 526.18109 : 1"
       inkscape:vp_y="0 : 1000 : 0"
       inkscape:vp_z="744.09448 : 526.18109 : 1"
       inkscape:persp3d-origin="372.04724 : 350.78739 : 1"
       id="perspective10" />
    <inkscape:perspective
       id="perspective2824"
       inkscape:persp3d-origin="0.5 : 0.33333333 : 1"
       inkscape:vp_z="1 : 0.5 : 1"
       inkscape:vp_y="0 : 1000 : 0"
       inkscape:vp_x="0 : 0.5 : 1"
       sodipodi:type="inkscape:persp3d" />
    <inkscape:perspective
       id="perspective2842"
       inkscape:persp3d-origin="0.5 : 0.33333333 : 1"
       inkscape:vp_z="1 : 0.5 : 1"
       inkscape:vp_y="0 : 1000 : 0"
       inkscape:vp_x="0 : 0.5 : 1"
       sodipodi:type="inkscape:persp3d" />
    <inkscape:perspective
       id="perspective2872"
       inkscape:persp3d-origin="0.5 : 0.33333333 : 1"
       inkscape:vp_z="1 : 0.5 : 1"
       inkscape:vp_y="0 : 1000 : 0"
       inkscape:vp_x="0 : 0.5 : 1"
       sodipodi:type="inkscape:persp3d" />
    <inkscape:perspective
       id="perspective2905"
       inkscape:persp3d-origin="0.5 : 0.33333333 : 1"
       inkscape:vp_z="1 : 0.5 : 1"
       inkscape:vp_y="0 : 1000 : 0"
       inkscape:vp_x="0 : 0.5 : 1"
       sodipodi:type="inkscape:persp3d" />
  </defs>
  <sodipodi:namedview
     id="base"
     pagecolor="#ffffff"
     bordercolor="#666666"
     borderopacity="1.0"
     inkscape:pageopacity="0.0"
     inkscape:pageshadow="2"
     inkscape:zoom="2"
     inkscape:cx="174.30984"
     inkscape:cy="72.986727"
     inkscape:document-units="px"
     inkscape:current-layer="layer1"
     showgrid="false"
     inkscape:window-width="1366"
     inkscape:window-height="706"
     inkscape:window-x="-8"
     inkscape:window-y="-8"
     inkscape:window-maximized="1" />
  <metadata
     id="metadata7">
    <rdf:RDF>
      <cc:Work
         rdf:about="">
        <dc:format>image/svg+xml</dc:format>
        <dc:type
           rdf:resource="http://purl.org/dc/dcmitype/StillImage" />
        <dc:title></dc:title>
      </cc:Work>
    </rdf:RDF>
  </metadata>
  <g
     inkscape:label="Layer 1"
     inkscape:groupmode="layer"
     id="layer1"
     transform="translate(-138.89463,-111.15762)">
    <path
       style="fill:#999999;stroke:#999999;stroke-width:1px;stroke-linecap:butt;stroke-linejoin:miter;stroke-opacity:1"
       d="m 258.40964,128.19887 c 13.23697,3.84849 24.1032,12.79052 33.01937,20.70813 l 8.08122,-8.46003 c -15.59498,-16.34659 -38.77449,-28.75985 -69.32172,-28.78935 -26.28332,0.87392 -51.96263,11.08214 -68.05903,29.16816 l 8.33376,7.95495 c 8.80277,-8.92544 20.41959,-15.77489 32.99321,-20.69281 -5.43351,11.56339 -4.53947,26.43569 0.91855,36.55105 6.81225,11.21384 16.4654,15.81656 30.44643,15.13392 7.91614,-0.0786 16.94481,-1.89526 21.875,-4.73214 l -0.22321,-13.61607 c -6.33288,3.34006 -12.95472,6.18476 -20.9375,6.69643 -11.89182,-0.0469 -18.36172,-6.36628 -19.01786,-17.36607 l 44.86607,0.13393 0.0562,-0.0879 c -0.086,-7.97246 -0.24881,-13.49168 -2.96733,-22.47589 l -0.0632,-0.12631 4e-5,0 z"
       id="path2830"
       sodipodi:nodetypes="cccccccccccccccccc" />
    <path
       style="fill:#ffffff;stroke:#999999;stroke-width:1px;stroke-linecap:butt;stroke-linejoin:miter;stroke-opacity:1"
       d="m 216.615,139.75208 28.66308,0.0631 c 0.6706,-5.54219 -3.35181,-16.338 -13.82647,-16.09931 -10.78449,0.0598 -14.36815,8.67294 -14.83661,16.03617 l 0,4e-5 z"
       id="path2832-1"
       sodipodi:nodetypes="ccccc" />
    <path
       style="fill:#999999;stroke:#999999;stroke-width:1px;stroke-linecap:butt;stroke-linejoin:miter;stroke-opacity:1"
       d="m 167.36965,231.86578 c 0.70756,-10.56504 -4.30631,-18.27194 -13.38452,-18.11962 -11.8492,0.0672 -14.5151,9.27349 -14.58408,15.84677 -0.23368,10.11647 5.9341,15.86759 15.40483,16.28871 1.71589,0.0415 7.74033,-0.45258 10.6066,-2.77792 l 0.0631,-6.43972 c -3.18446,2.04196 -6.43489,3.25916 -9.78585,3.21986 -7.91193,-0.40991 -9.11711,-5.02198 -8.81473,-7.99043 l 20.49465,-0.0272 0,-4e-4 z"
       id="path2856"
       sodipodi:nodetypes="cccccccccc" />
    <path
       style="fill:#999999;stroke:#999999;stroke-width:1px;stroke-linecap:butt;stroke-linejoin:miter;stroke-opacity:1"
       d="m 172.375,214.76843 -0.0625,30.03125 8.125,0 -0.0937,-19.59375 c 0.0818,-2.40756 3.08418,-5.42013 6.5625,-5.4375 3.36893,0.12308 5.54179,3.64745 5.4375,5.25 l 0.0625,19.78125 8.0625,-0.0312 0.0312,-20.9375 c -0.39225,-5.87488 -5.23017,-10.14358 -11.28125,-10.125 -4.55266,-0.24096 -7.375,1.80262 -9.28125,4.28125 l -0.0312,-3.125 -7.53125,-0.0937 -5e-5,-1e-4 z"
       id="path2860"
       sodipodi:nodetypes="cccccccccccccc" />
    <path
       style="fill:#999999;stroke:#999999;stroke-width:1px;stroke-linecap:butt;stroke-linejoin:miter;stroke-opacity:1"
       d="m 226.36256,200.82884 8.04334,-0.0442 0.0442,44.10578 -7.6014,-0.0884 -0.0442,-3.8007 c -1.70665,2.65008 -4.27515,4.83546 -9.14819,4.81716 -10.1588,-0.84952 -12.8262,-8.30735 -13.08147,-15.64474 0.0634,-4.74371 0.74484,-15.70753 13.12566,-16.35184 5.03042,0.1069 7.30332,2.22366 8.83883,4.19845 l -0.17677,-17.19154 0,3e-5 z"
       id="path2862"
       sodipodi:nodetypes="ccccccccccc" />
    <path
       style="fill:#999999;stroke:#999999;stroke-width:1px;stroke-linecap:butt;stroke-linejoin:miter;stroke-opacity:1"
       d="m 323.2045,231.789 c 0.70756,-10.56504 -4.30631,-18.27194 -13.38452,-18.11962 -11.8492,0.0672 -14.5151,9.27349 -14.58408,15.84677 -0.23368,10.11647 5.9341,15.86759 15.40483,16.28871 1.71589,0.0415 7.74033,-0.45258 10.6066,-2.77792 l 0.0631,-6.43972 c -3.18446,2.04196 -6.43489,3.25916 -9.78585,3.21986 -7.91193,-0.40991 -9.11711,-5.02198 -8.81473,-7.99043 l 20.49465,-0.0272 0,-4e-4 z"
       id="path2856-7"
       sodipodi:nodetypes="cccccccccc" />
    <path
       style="fill:#999999;stroke:#999999;stroke-width:1px;stroke-linecap:butt;stroke-linejoin:miter;stroke-opacity:1"
       d="m 242.5,222.98718 -0.0625,-7.0625 c 2.90263,-1.26404 6.02799,-2.30534 10.25,-2.25 10.71482,0.27 12.36432,4.61939 13.25,9.3125 l 0.375,21.875 -7.25,-0.0625 0.0625,-3.9375 c -1.51054,2.43066 -3.87551,4.53437 -8.875,5 -6.09555,-0.78131 -10.19008,-3.36998 -11.125,-8.8125 -0.41013,-5.99531 3.99284,-9.84795 8.25,-10.1875 l 11.9375,-0.6875 c -0.1399,-4.743 -2.65267,-6.83933 -7.125,-6.75 -3.04073,0.30811 -6.15281,0.94924 -9.6875,3.5625 z"
       id="path2891"
       sodipodi:nodetypes="ccccccccccccc" />
    <path
       style="fill:#999999;stroke:#999999;stroke-width:1px;stroke-linecap:butt;stroke-linejoin:miter;stroke-opacity:1"
       d="m 292.0625,220.98718 c -2.97969,-0.76895 -5.78935,-2.14999 -9.5625,-0.0625 -3.62259,1.8843 -3.65195,5.20589 -4.0625,8.375 -0.21118,7.47054 3.53467,9.67564 8.125,10.5 2.51705,0.50097 4.33334,-0.74997 6.5,-1.125 l 0.125,5.5625 c -4.89567,1.70061 -10.53252,1.94969 -15.3125,-0.6875 -5.46134,-3.22672 -6.41131,-6.2924 -6.9375,-13.5 -0.44075,-7.70365 3.68007,-13.29977 10.3125,-16.0625 3.90176,-1.21065 6.3444,-0.45938 9.125,-0.0625 1.20833,0.16667 1.83334,0.54167 1.875,1.125 l -0.1875,5.9375 z"
       id="path2895"
       sodipodi:nodetypes="cccccccccccc" />
    <path
       style="fill:#ffffff;stroke:#999999;stroke-width:1px;stroke-linecap:butt;stroke-linejoin:miter;stroke-opacity:1"
       d="m 146.81288,226.73768 13.75,0.15625 c -0.60723,-5.03146 -3.48453,-7.32296 -6.625,-7.36964 -4.00953,-0.33701 -7.38299,4.20645 -7.125,7.21339 z"
       id="path2858-0"
       sodipodi:nodetypes="cccc" />
    <path
       style="fill:#ffffff;stroke:#999999;stroke-width:1px;stroke-linecap:butt;stroke-linejoin:miter;stroke-opacity:1"
       d="m 302.64772,226.6609 13.75,0.15625 c -0.60723,-5.03146 -3.48453,-7.32296 -6.625,-7.36964 -4.00953,-0.33701 -7.38299,4.20645 -7.125,7.21339 z"
       id="path2858-4-9"
       sodipodi:nodetypes="cccc" />
    <path
       style="fill:#ffffff;stroke:#999999;stroke-width:1px;stroke-linecap:butt;stroke-linejoin:miter;stroke-opacity:1"
       d="m 213.25038,229.55018 c -0.0779,-4.34242 0.64774,-9.30128 6.375,-9.8125 5.22636,-0.26252 6.80096,6.31448 6.8125,9.75 0.22505,5.63755 -2.2643,10.1434 -6.5,10.25 -4.66839,0.11011 -6.85889,-4.54858 -6.6875,-10.1875 z"
       id="path2889-4"
       sodipodi:nodetypes="ccccc" />
    <path
       style="fill:#ffffff;stroke:#999999;stroke-width:1px;stroke-linecap:butt;stroke-linejoin:miter;stroke-opacity:1"
       d="m 258.75037,230.80018 c -3.20339,0.0815 -5.35814,-0.76636 -9.1875,0.6875 -1.75117,1.08834 -3.04913,2.57721 -3.125,4.1875 0.33125,2.85728 2.5032,4.70204 5.125,4.25 2.93677,-0.29314 5.1848,-1.96373 7.125,-4.25 l 0.0625,-4.875 z"
       id="path2893-8"
       sodipodi:nodetypes="cccccc" />
  </g>
</svg>
